<svg xmlns="http://www.w3.org/2000/svg" xmlns:xlink="http://www.w3.org/1999/xlink" width="21" height="21" viewBox="0 0 21 21"><defs><path id="1qlxa" d="M900.745 2538.514a.808.808 0 0 1 0 1.14l-6.276 6.268a.808.808 0 0 0 0 1.14l6.273 6.273a.807.807 0 0 1 0 1.139l-2.285 2.278a.812.812 0 0 1-1.141 0l-6.271-6.272a.81.81 0 0 0-1.141 0l-6.276 6.267a.81.81 0 0 1-1.141 0l-2.282-2.28a.807.807 0 0 1 0-1.14l6.277-6.268a.808.808 0 0 0 0-1.14l-6.272-6.272a.807.807 0 0 1 0-1.14l2.284-2.277a.81.81 0 0 1 1.141 0l6.27 6.27a.81.81 0 0 0 1.141.001l6.276-6.266a.81.81 0 0 1 1.14 0z"/></defs><g><g transform="translate(-880 -2536)"><use fill="#34495e" xlink:href="#1qlxa"/><use fill="#ee3643" xlink:href="#1qlxa"/></g></g></svg>